<svg id="Camada_1" data-name="Camada 1" xmlns="http://www.w3.org/2000/svg" viewBox="0 0 228.14 82.75"><defs><style>.cls-1{fill:#fff;}</style></defs><title>Prancheta 1</title><path class="cls-1" d="M205.76,1.09H22.24v0a20.08,20.08,0,0,1-20.12,20H2.07V61.38h.05a20.08,20.08,0,0,1,20.12,20H205.76a20.12,20.12,0,0,1,20.17-20.08V21.17A20.12,20.12,0,0,1,205.76,1.09Zm17.15,57.42a23.19,23.19,0,0,0-20,19.89H25.06a23.15,23.15,0,0,0-20-19.85V24a23.16,23.16,0,0,0,20-19.9H202.94a23.19,23.19,0,0,0,20,19.89Z"/><path class="cls-1" d="M38.78,17.81H190.31a1,1,0,1,0,0-2H38.78a1,1,0,1,0,0,2Z"/><path class="cls-1" d="M190.31,62.52H38.78a1,1,0,1,0,0,2H190.31a1,1,0,1,0,0-2Z"/><path class="cls-1" d="M38.52,41.52V47.9a.54.54,0,0,0,.18.42.57.57,0,0,0,.42.16H42a.53.53,0,0,0,.41-.17.57.57,0,0,0,.16-.41V41.35a5.42,5.42,0,0,0-1.18-3.81,4,4,0,0,0-3.08-1.28,4.24,4.24,0,0,0-2.12.55,4.29,4.29,0,0,0-1.55,1.43,3.5,3.5,0,0,0-3.48-2,4.13,4.13,0,0,0-2,.46,4.43,4.43,0,0,0-1.43,1.13v-.79a.57.57,0,0,0-.17-.41.53.53,0,0,0-.41-.16H24.45a.56.56,0,0,0-.57.57V47.9a.58.58,0,0,0,.57.58h2.91a.53.53,0,0,0,.41-.17.58.58,0,0,0,.17-.41V41.49A2.17,2.17,0,0,1,28.4,40a1.53,1.53,0,0,1,1.17-.5,1.56,1.56,0,0,1,1.2.5,2.22,2.22,0,0,1,.46,1.56V47.9a.54.54,0,0,0,.18.42.57.57,0,0,0,.42.16h2.84a.57.57,0,0,0,.42-.17.62.62,0,0,0,.16-.41V41.52A2.27,2.27,0,0,1,35.7,40a1.49,1.49,0,0,1,1.16-.5,1.55,1.55,0,0,1,1.21.5A2.27,2.27,0,0,1,38.52,41.52Z"/><path class="cls-1" d="M56.14,43.59a.58.58,0,0,0,.6-.6v-.58a7.2,7.2,0,0,0-.68-3.17A5,5,0,0,0,54,37.05a6.6,6.6,0,0,0-3.36-.79,6,6,0,0,0-4.36,1.54,6,6,0,0,0-1.7,4.29v.72a5.85,5.85,0,0,0,1.66,4.39,6.2,6.2,0,0,0,4.43,1.51,7.49,7.49,0,0,0,3.08-.58,5.43,5.43,0,0,0,2-1.38,2.38,2.38,0,0,0,.68-1.41.4.4,0,0,0-.15-.31.56.56,0,0,0-.36-.12h-3a1,1,0,0,0-.4.05,1.27,1.27,0,0,0-.34.29,3.32,3.32,0,0,1-.63.57,1.67,1.67,0,0,1-.89.22,1.52,1.52,0,0,1-1.31-.64,2.9,2.9,0,0,1-.49-1.67v-.14Zm-7.31-2.4a2.79,2.79,0,0,1,.47-1.72,1.81,1.81,0,0,1,2.71,0,2.67,2.67,0,0,1,.49,1.72v.05H48.83Z"/><path class="cls-1" d="M62.88,32.08a.62.62,0,0,0-.6-.6H59.39a.55.55,0,0,0-.4.18.54.54,0,0,0-.17.42v2.15a.57.57,0,0,0,.16.42.52.52,0,0,0,.41.18h2.89a.62.62,0,0,0,.6-.6Z"/><path class="cls-1" d="M62.28,36.49H59.39a.57.57,0,0,0-.4.16.53.53,0,0,0-.17.41V47.9a.54.54,0,0,0,.17.41.58.58,0,0,0,.4.17h2.89a.57.57,0,0,0,.42-.16.54.54,0,0,0,.18-.42V37.06a.54.54,0,0,0-.18-.41A.57.57,0,0,0,62.28,36.49Z"/><path class="cls-1" d="M72.85,48.31a.58.58,0,0,0,.4.17h2.84a.57.57,0,0,0,.42-.17.62.62,0,0,0,.16-.41v-7a4.37,4.37,0,0,0-1.39-3.41A6.17,6.17,0,0,0,71,36.26a7.28,7.28,0,0,0-3,.55,4.63,4.63,0,0,0-1.82,1.33,2.57,2.57,0,0,0-.63,1.39.44.44,0,0,0,.13.36.52.52,0,0,0,.38.15h2.68a.26.26,0,0,0,.23-.16,3.06,3.06,0,0,0,.53-.37,3.94,3.94,0,0,1,.7-.49,1.79,1.79,0,0,1,.77-.16,1.47,1.47,0,0,1,1.18.4,1.84,1.84,0,0,1,.35,1.24v.28l-2.86.44a8,8,0,0,0-3.59,1.34,3.06,3.06,0,0,0-1.3,2.55,3.2,3.2,0,0,0,.56,1.82,3.83,3.83,0,0,0,1.57,1.31,5.24,5.24,0,0,0,2.23.47,4.73,4.73,0,0,0,2.14-.45,3.8,3.8,0,0,0,1.41-1.16v.8A.58.58,0,0,0,72.85,48.31Zm-.29-4.93a2.73,2.73,0,0,1-.63,1.94,2.15,2.15,0,0,1-1.65.67,1.9,1.9,0,0,1-1.12-.32,1,1,0,0,1-.45-.86c0-.67.65-1.13,1.94-1.38l1.91-.32Z"/><path class="cls-1" d="M90.27,43.59a.6.6,0,0,0,.43-.17.57.57,0,0,0,.17-.43v-.58a7.06,7.06,0,0,0-.68-3.17,5,5,0,0,0-2-2.19,6.57,6.57,0,0,0-3.35-.79,6,6,0,0,0-4.36,1.54,5.93,5.93,0,0,0-1.71,4.29v.72a5.85,5.85,0,0,0,1.66,4.39,6.22,6.22,0,0,0,4.43,1.51,7.49,7.49,0,0,0,3.08-.58,5.27,5.27,0,0,0,2-1.38,2.38,2.38,0,0,0,.68-1.41A.4.4,0,0,0,90.4,45a.56.56,0,0,0-.36-.12H87a1,1,0,0,0-.4.05,1.27,1.27,0,0,0-.34.29,3.32,3.32,0,0,1-.63.57,1.65,1.65,0,0,1-.89.22,1.53,1.53,0,0,1-1.31-.64A2.9,2.9,0,0,1,83,43.73v-.14ZM83,41.19a2.73,2.73,0,0,1,.48-1.72,1.61,1.61,0,0,1,1.35-.61,1.67,1.67,0,0,1,1.36.61,2.73,2.73,0,0,1,.48,1.72v.05H83Z"/><path class="cls-1" d="M101.26,48.32a.6.6,0,0,0,.43.16h3.07a.53.53,0,0,0,.41-.17.57.57,0,0,0,.16-.41V41.47a6.34,6.34,0,0,0-.58-2.84,4.16,4.16,0,0,0-1.62-1.77,4.53,4.53,0,0,0-2.34-.6,5.2,5.2,0,0,0-2.25.46,4.49,4.49,0,0,0-1.6,1.22v-.88a.56.56,0,0,0-.16-.41.57.57,0,0,0-.42-.16H93.53a.57.57,0,0,0-.41.16.57.57,0,0,0-.17.41V47.9a.58.58,0,0,0,.58.58h3.06a.56.56,0,0,0,.58-.58V41.61A2.22,2.22,0,0,1,97.7,40a1.88,1.88,0,0,1,1.45-.57,1.83,1.83,0,0,1,1.44.56,2.25,2.25,0,0,1,.5,1.59V47.9A.57.57,0,0,0,101.26,48.32Z"/><path class="cls-1" d="M114,48.48h2.19a.53.53,0,0,0,.41-.17.58.58,0,0,0,.17-.41V45.78a.61.61,0,0,0-.17-.43.53.53,0,0,0-.41-.17H114.4a1.13,1.13,0,0,1-1-.41,2.11,2.11,0,0,1-.3-1.23V39.62H116a.6.6,0,0,0,.43-.16.55.55,0,0,0,.17-.41v-2a.57.57,0,0,0-.17-.41.6.6,0,0,0-.43-.16h-2.88V32.68a.53.53,0,0,0-.16-.41.57.57,0,0,0-.42-.16h-2.83a.57.57,0,0,0-.41.16.53.53,0,0,0-.17.41v3.81h-1.82a.57.57,0,0,0-.41.16.57.57,0,0,0-.17.41v2a.56.56,0,0,0,.17.4.54.54,0,0,0,.41.17h1.82v4.27Q109.14,48.48,114,48.48Z"/><path class="cls-1" d="M122.48,36.66a.6.6,0,0,0-.43-.17h-2.81a.53.53,0,0,0-.41.17.61.61,0,0,0-.17.43V47.9a.55.55,0,0,0,.18.41.56.56,0,0,0,.4.17h3.05a.58.58,0,0,0,.42-.16.54.54,0,0,0,.17-.42V42.09a2,2,0,0,1,.5-1.43,1.88,1.88,0,0,1,1.42-.51h2.33a.5.5,0,0,0,.41-.17.56.56,0,0,0,.17-.4V37.06a.57.57,0,0,0-.17-.41.53.53,0,0,0-.41-.16h-1a4.65,4.65,0,0,0-1.93.38A4.49,4.49,0,0,0,122.65,38v-.87A.57.57,0,0,0,122.48,36.66Z"/><path class="cls-1" d="M136.43,48.31a.58.58,0,0,0,.41.17h2.84a.57.57,0,0,0,.41-.17.57.57,0,0,0,.16-.41v-7a4.39,4.39,0,0,0-1.38-3.41,6.22,6.22,0,0,0-4.25-1.25,7.31,7.31,0,0,0-3,.55,4.7,4.7,0,0,0-1.82,1.33,2.47,2.47,0,0,0-.62,1.39.38.38,0,0,0,.13.36.49.49,0,0,0,.38.15h2.67a.26.26,0,0,0,.23-.16,3.06,3.06,0,0,0,.53-.37,4,4,0,0,1,.71-.49,1.72,1.72,0,0,1,.77-.16,1.46,1.46,0,0,1,1.17.4,1.84,1.84,0,0,1,.35,1.24v.28l-2.86.44a8.06,8.06,0,0,0-3.59,1.34,3.08,3.08,0,0,0-1.3,2.55,3.14,3.14,0,0,0,.57,1.82,3.8,3.8,0,0,0,1.56,1.31,5.24,5.24,0,0,0,2.23.47,4.7,4.7,0,0,0,2.14-.45,3.8,3.8,0,0,0,1.41-1.16v.8A.58.58,0,0,0,136.43,48.31Zm-.28-4.93a2.73,2.73,0,0,1-.64,1.94,2.15,2.15,0,0,1-1.65.67,1.92,1.92,0,0,1-1.12-.32,1,1,0,0,1-.45-.86c0-.67.65-1.13,1.94-1.38l1.92-.32Z"/><path class="cls-1" d="M151,48.31a.58.58,0,0,0,.4.17h2.75a.57.57,0,0,0,.42-.16.54.54,0,0,0,.18-.42V32.68a.51.51,0,0,0-.18-.41.57.57,0,0,0-.42-.16h-3a.55.55,0,0,0-.4.16.5.5,0,0,0-.17.41v4.91a4.41,4.41,0,0,0-3.35-1.33,4.47,4.47,0,0,0-3.5,1.44,6.06,6.06,0,0,0-1.39,3.95l0,.83,0,.81a6,6,0,0,0,1.38,4,4.49,4.49,0,0,0,3.51,1.41,4.37,4.37,0,0,0,3.58-1.52v.71A.54.54,0,0,0,151,48.31Zm-.4-5a2.81,2.81,0,0,1-.53,1.6,1.77,1.77,0,0,1-1.48.64,1.73,1.73,0,0,1-1.49-.62,3.16,3.16,0,0,1-.52-1.69l0-.72,0-.71a3.23,3.23,0,0,1,.52-1.7,1.75,1.75,0,0,1,1.49-.61,1.8,1.8,0,0,1,1.46.59,2.38,2.38,0,0,1,.55,1.49c0,.4,0,.68,0,.85S150.64,42.84,150.61,43.27Z"/><path class="cls-1" d="M164.73,48.31a.58.58,0,0,0,.41.17H168a.57.57,0,0,0,.42-.17.62.62,0,0,0,.16-.41v-7a4.39,4.39,0,0,0-1.38-3.41,6.22,6.22,0,0,0-4.25-1.25,7.31,7.31,0,0,0-3,.55,4.7,4.7,0,0,0-1.82,1.33,2.47,2.47,0,0,0-.62,1.39.4.4,0,0,0,.12.36A.52.52,0,0,0,158,40h2.68a.26.26,0,0,0,.23-.16,3.06,3.06,0,0,0,.53-.37,4.34,4.34,0,0,1,.7-.49,1.8,1.8,0,0,1,.78-.16,1.46,1.46,0,0,1,1.17.4,1.84,1.84,0,0,1,.35,1.24v.28l-2.86.44A8.06,8.06,0,0,0,158,42.56a3.06,3.06,0,0,0-1.3,2.55,3.2,3.2,0,0,0,.56,1.82,3.83,3.83,0,0,0,1.57,1.31,5.24,5.24,0,0,0,2.23.47,4.73,4.73,0,0,0,2.14-.45,3.8,3.8,0,0,0,1.41-1.16v.8A.58.58,0,0,0,164.73,48.31Zm-.29-4.93a2.73,2.73,0,0,1-.63,1.94,2.15,2.15,0,0,1-1.65.67,1.9,1.9,0,0,1-1.12-.32,1,1,0,0,1-.45-.86c0-.67.65-1.13,1.94-1.38l1.91-.32Z"/><path class="cls-1" d="M170.8,47.14a.26.26,0,0,0-.19.08.3.3,0,0,0-.08.2v.79a.24.24,0,0,0,.08.19.22.22,0,0,0,.19.08h.79a.22.22,0,0,0,.19-.08.24.24,0,0,0,.08-.19v-.79a.3.3,0,0,0-.08-.2.26.26,0,0,0-.19-.08Z"/><path class="cls-1" d="M175.81,42.37a2.61,2.61,0,0,0-1.94.71,2.8,2.8,0,0,0-.74,1.91v1a2.78,2.78,0,0,0,.73,1.9,3,3,0,0,0,3.91,0,2.78,2.78,0,0,0,.73-1.9,4.26,4.26,0,0,0,0-.5,4.1,4.1,0,0,0,0-.49,2.8,2.8,0,0,0-.74-1.91A2.64,2.64,0,0,0,175.81,42.37Zm1.64,3.55a2,2,0,0,1-.47,1.34,1.47,1.47,0,0,1-1.17.47,1.49,1.49,0,0,1-1.17-.47,2,2,0,0,1-.46-1.34l0-.44,0-.44a2,2,0,0,1,.46-1.34,1.53,1.53,0,0,1,1.17-.47,1.5,1.5,0,0,1,1.17.47,2,2,0,0,1,.47,1.34c0,.08,0,.23,0,.44S177.46,45.84,177.45,45.92Z"/><path class="cls-1" d="M180.93,42.56a.28.28,0,0,0-.2-.08h-.49a.26.26,0,0,0-.19.08.29.29,0,0,0-.07.2v5.45a.24.24,0,0,0,.07.19.22.22,0,0,0,.19.08h.52a.26.26,0,0,0,.2-.08.24.24,0,0,0,.08-.19v-3.4a1.38,1.38,0,0,1,.36-1,1.33,1.33,0,0,1,1-.37h.66a.24.24,0,0,0,.19-.07.26.26,0,0,0,.07-.19v-.43a.26.26,0,0,0-.07-.2.27.27,0,0,0-.19-.07h-.45a1.74,1.74,0,0,0-1.61.79v-.51A.27.27,0,0,0,180.93,42.56Z"/><path class="cls-1" d="M187.84,49.78a1.86,1.86,0,0,1-1.28.37,1.37,1.37,0,0,1-1.46-.92A.35.35,0,0,0,185,49a.23.23,0,0,0-.17,0h-.51a.24.24,0,0,0-.18.07.22.22,0,0,0-.08.18,1.49,1.49,0,0,0,.23.72,2.09,2.09,0,0,0,.81.73,3.11,3.11,0,0,0,1.54.33,2.37,2.37,0,0,0,2.69-2.67V42.76a.3.3,0,0,0-.08-.2.26.26,0,0,0-.19-.08h-.5a.27.27,0,0,0-.19.08.29.29,0,0,0-.07.2v.5a2.22,2.22,0,0,0-1.89-.89,2.14,2.14,0,0,0-1.83.79,3.32,3.32,0,0,0-.64,2v.63a3.3,3.3,0,0,0,.64,2,2.14,2.14,0,0,0,1.83.79,2.25,2.25,0,0,0,1.87-.86v.8A1.66,1.66,0,0,1,187.84,49.78Zm0-2.67a1.44,1.44,0,0,1-1.21.53,1.38,1.38,0,0,1-1.21-.53,2.43,2.43,0,0,1-.41-1.35v-.61a2.44,2.44,0,0,1,.41-1.36,1.38,1.38,0,0,1,1.21-.52,1.44,1.44,0,0,1,1.21.52,2.24,2.24,0,0,1,.45,1.27c0,.06,0,.2,0,.39s0,.33,0,.4A2.23,2.23,0,0,1,187.81,47.11Z"/><path class="cls-1" d="M192,47.14h-.8a.26.26,0,0,0-.19.08.29.29,0,0,0-.07.2v.79a.24.24,0,0,0,.07.19.22.22,0,0,0,.19.08h.8a.26.26,0,0,0,.26-.27v-.79a.29.29,0,0,0-.07-.2A.27.27,0,0,0,192,47.14Z"/><path class="cls-1" d="M198.67,43.16a2.12,2.12,0,0,0-1.81-.79,2.19,2.19,0,0,0-1.87.85V40.56a.25.25,0,0,0-.07-.19.28.28,0,0,0-.2-.08h-.51a.29.29,0,0,0-.19.07.26.26,0,0,0-.08.2v7.65a.24.24,0,0,0,.08.19.22.22,0,0,0,.19.08h.48a.22.22,0,0,0,.19-.08.24.24,0,0,0,.08-.19v-.49a2.23,2.23,0,0,0,1.9.88,2.14,2.14,0,0,0,1.81-.79,3.28,3.28,0,0,0,.64-2,3,3,0,0,0,0-.35,2.82,2.82,0,0,0,0-.34A3.26,3.26,0,0,0,198.67,43.16Zm-.4,2.66a2.52,2.52,0,0,1-.42,1.36,1.42,1.42,0,0,1-1.21.52,1.44,1.44,0,0,1-1.22-.54,2.2,2.2,0,0,1-.43-1.27c0-.09,0-.24,0-.44s0-.37,0-.45a2,2,0,0,1,.44-1.22,1.49,1.49,0,0,1,1.21-.51c1.09,0,1.64.74,1.64,2.21C198.28,45.63,198.27,45.74,198.27,45.82Z"/><path class="cls-1" d="M203.86,42.48h-.45a1.72,1.72,0,0,0-1.6.79v-.51a.27.27,0,0,0-.28-.28H201a.27.27,0,0,0-.19.08.29.29,0,0,0-.07.2v5.45a.26.26,0,0,0,.26.27h.52a.24.24,0,0,0,.2-.08.24.24,0,0,0,.08-.19v-3.4a1.38,1.38,0,0,1,.36-1,1.34,1.34,0,0,1,1-.37h.66a.24.24,0,0,0,.19-.07.26.26,0,0,0,.07-.19v-.43a.26.26,0,0,0-.07-.2A.27.27,0,0,0,203.86,42.48Z"/></svg>