<?xml version="1.0" standalone="no"?>
<!DOCTYPE svg PUBLIC "-//W3C//DTD SVG 20010904//EN"
 "http://www.w3.org/TR/2001/REC-SVG-20010904/DTD/svg10.dtd">
<svg version="1.0" xmlns="http://www.w3.org/2000/svg"
 width="700.000000pt" height="700.000000pt" viewBox="0 0 700.000000 700.000000"
 preserveAspectRatio="xMidYMid meet">
<metadata>
Created by potrace 1.11, written by Peter Selinger 2001-2013
</metadata>
<g transform="translate(0.000000,700.000000) scale(0.100000,-0.100000)"
fill="#000000" stroke="none">
<path d="M1180 6989 c-506 -66 -923 -398 -1100 -878 -16 -45 -40 -128 -52
-184 l-23 -102 0 -2325 0 -2325 23 -102 c118 -534 511 -927 1045 -1045 l102
-23 2325 0 2325 0 102 23 c534 118 927 511 1045 1045 l23 102 0 2325 0 2325
-23 102 c-117 531 -506 922 -1040 1045 l-97 22 -2295 2 c-1262 1 -2324 -2
-2360 -7z m4303 -2278 c4 -32 18 -94 31 -137 73 -228 297 -412 529 -431 l67
-6 0 -637 0 -637 -65 -7 c-291 -30 -535 -271 -561 -556 l-7 -70 -1993 0 -1994
0 0 40 c0 108 -64 265 -148 366 -58 70 -173 152 -259 184 -32 12 -95 27 -140
33 l-83 11 0 648 0 648 43 0 c67 0 190 35 270 77 83 44 199 152 242 227 42 71
73 166 81 241 l7 65 1987 0 1987 0 6 -59z"/>
<path d="M2040 4100 l0 -160 1488 2 1487 3 3 158 3 157 -1491 0 -1490 0 0
-160z"/>
<path d="M1397 4073 c-4 -3 -7 -269 -7 -590 l0 -583 55 0 55 0 0 590 0 590
-48 0 c-27 0 -52 -3 -55 -7z"/>
<path d="M5500 3491 l0 -591 55 0 55 0 -2 588 -3 587 -52 3 -53 3 0 -590z"/>
<path d="M2040 2900 l0 -160 1490 0 1491 0 -3 158 -3 157 -1487 3 -1488 2 0
-160z"/>
</g>
</svg>
